<svg xmlns="http://www.w3.org/2000/svg" viewBox="0 0 32 32" fill="none">
  <rect width="32" height="32" rx="6" fill="#2563eb"/>
  <path d="M8 12C8 9.79086 9.79086 8 12 8H16C18.2091 8 20 9.79086 20 12V16C20 18.2091 18.2091 20 16 20H12C9.79086 20 8 18.2091 8 16V12Z" fill="white"/>
  <path d="M14 14C14 11.7909 15.7909 10 18 10H22C24.2091 10 26 11.7909 26 14V18C26 20.2091 24.2091 22 22 22H18C15.7909 22 14 20.2091 14 18V14Z" fill="#60a5fa" fill-opacity="0.8"/>
  <circle cx="16" cy="16" r="3" fill="#1e40af"/>
</svg>
